<?xml version="1.0" encoding="UTF-8" standalone="no"?>
<svg
   xmlns:dc="http://purl.org/dc/elements/1.1/"
   xmlns:cc="http://creativecommons.org/ns#"
   xmlns:rdf="http://www.w3.org/1999/02/22-rdf-syntax-ns#"
   xmlns:svg="http://www.w3.org/2000/svg"
   xmlns="http://www.w3.org/2000/svg"
   viewBox="0 0 1122.52 793.70667"
   height="793.70667"
   width="1122.52"
   xml:space="preserve"
   id="svg2"
   version="1.1"><metadata
     id="metadata8"><rdf:RDF><cc:Work
         rdf:about=""><dc:format>image/svg+xml</dc:format><dc:type
           rdf:resource="http://purl.org/dc/dcmitype/StillImage" /></cc:Work></rdf:RDF></metadata><defs
     id="defs6"><clipPath
       id="clipPath20"
       clipPathUnits="userSpaceOnUse"><path
         id="path18"
         d="M 0,595.28 H 841.89 V 0 H 0 Z" /></clipPath></defs><g
     transform="matrix(1.3333333,0,0,-1.3333333,0,793.70667)"
     id="g10"><path
       id="path12"
       style="fill:#000000;fill-opacity:1;fill-rule:nonzero;stroke:none"
       d="M 0,0 H 841.89 V 595.281 H 0 Z" /><g
       id="g14"><g
         clip-path="url(#clipPath20)"
         id="g16"><g
           transform="translate(743.1875,47.5)"
           id="g22"><path
             id="path24"
             style="fill:#ffffff;fill-opacity:1;fill-rule:nonzero;stroke:none"
             d="m 0,0 c 10.982,0 21.724,3.178 30.937,9.147 9.211,5.966 16.498,14.479 20.979,24.5 4.485,10.022 5.966,21.129 4.276,31.975 -1.689,10.846 -6.485,20.976 -13.798,29.154 7.313,8.179 12.109,18.305 13.798,29.155 1.69,10.846 0.209,21.949 -4.276,31.974 -4.481,10.018 -11.768,18.531 -20.979,24.499 -9.213,5.971 -19.955,9.15 -30.937,9.15 H -170.598 V 75.825 H 0 c 5.028,0 9.848,-2.004 13.412,-5.553 3.549,-3.563 5.552,-8.383 5.552,-13.413 0,-5.019 -2.003,-9.839 -5.552,-13.399 C 9.848,39.907 5.028,37.908 0,37.908 h -226.71 c -24.266,50.548 -48.52,101.101 -72.783,151.646 h -45.5 C -369.257,139.009 -393.521,88.456 -417.78,37.908 h -238.088 v 151.646 h -45.49 V 0 h 310.874 c 22.748,47.39 45.491,94.776 68.239,142.163 C -299.493,94.776 -276.748,47.39 -254.006,0 Z" /></g><g
           transform="translate(304.2891,256.1543)"
           id="g26"><path
             id="path28"
             style="fill:#6699cc;fill-opacity:1;fill-rule:nonzero;stroke:none"
             d="m 0,0 c 23.207,0 45.459,9.221 61.867,25.626 16.407,16.408 25.626,38.659 25.626,61.859 0,23.209 -9.219,45.459 -25.626,61.869 C 45.459,165.76 23.207,174.98 0,174.98 h -174.974 c -7.734,0 -15.152,3.068 -20.622,8.537 -5.469,5.469 -8.539,12.887 -8.539,20.622 0,7.736 3.07,15.154 8.539,20.624 5.47,5.468 12.888,8.538 20.622,8.538 H 87.493 v 58.325 h -262.467 c -23.201,0 -45.454,-9.213 -61.859,-25.619 -16.408,-16.409 -25.626,-38.666 -25.626,-61.868 0,-23.201 9.218,-45.452 25.618,-61.859 16.407,-16.407 38.666,-25.627 61.867,-25.627 H 0 c 7.736,0 15.152,-3.075 20.624,-8.544 5.467,-5.469 8.542,-12.888 8.542,-20.624 0,-7.728 -3.075,-15.146 -8.542,-20.614 C 15.152,61.4 7.736,58.327 0,58.327 H -262.459 V 0 Z" /></g><g
           transform="translate(800.0557,256.1543)"
           id="g30"><path
             id="path32"
             style="fill:#c08030;fill-opacity:1;fill-rule:nonzero;stroke:none"
             d="M 0,0 H -349.953 V 291.626 H 0 V 233.301 H -279.961 V 174.98 H -58.324 V 116.653 H -279.961 V 58.327 L 0,58.327 Z" /></g><g
           transform="translate(743.1875,199.1455)"
           id="g34"><path
             id="path36"
             style="fill:#000000;fill-opacity:1;fill-rule:nonzero;stroke:none"
             d="m 0,0 c 5.028,0 9.848,-2 13.412,-5.553 3.549,-3.56 5.552,-8.379 5.552,-13.408 0,-5.02 -2.003,-9.848 -5.552,-13.404 C 9.848,-35.913 5.028,-37.917 0,-37.917 H -128.896 V 0 Z" /></g></g></g></g></svg>